<svg xmlns="http://www.w3.org/2000/svg" id="youtube" width="90" height="90" viewBox="0 0 90 90">
    <defs>
        <style>
            .cls-1{fill:#022d56}
        </style>
    </defs>
    <path id="Path_31" d="M224.113 224.9l14.638-8.431-14.638-8.431zm0 0" class="cls-1" transform="translate(-184.718 -171.47)"/>
    <path id="Path_32" d="M45 0a45 45 0 1 0 45 45A45 45 0 0 0 45 0zm28.118 45.046s0 9.126-1.158 13.527A7.046 7.046 0 0 1 67 63.529c-4.4 1.158-22 1.158-22 1.158s-17.557 0-22-1.2a7.047 7.047 0 0 1-4.957-4.957C16.881 54.172 16.881 45 16.881 45s0-9.126 1.158-13.526a7.189 7.189 0 0 1 4.957-5c4.4-1.158 22-1.158 22-1.158s17.6 0 22 1.2a7.047 7.047 0 0 1 4.957 4.957c1.212 4.401 1.165 13.573 1.165 13.573zm0 0" class="cls-1"/>
</svg>
