<svg xmlns="http://www.w3.org/2000/svg" width="83" height="83" viewBox="0 0 83 83">
    <defs>
        <style>
            .cls-2{fill:#022c57}
        </style>
    </defs>
    <g id="Group_2881" transform="translate(0 0.006)">
        <circle id="Ellipse_137" cx="41.5" cy="41.5" r="41.5" fill="#fff" transform="translate(0 -0.006)"/>
        <g id="Group_2851" transform="translate(24.941 17.914)">
            <path id="Path_3518" d="M2789.525 2067.073h-14.515v7.879h14.515a1.168 1.168 0 0 0 1.168-1.168v-5.543a1.168 1.168 0 0 0-1.168-1.168z" class="cls-2" transform="translate(-2757.854 -2050.516)"/>
            <path id="Path_3519" d="M2195.544 2068.241v5.543a1.168 1.168 0 0 0 1.168 1.168h14.164v-7.879h-14.164a1.168 1.168 0 0 0-1.168 1.168z" class="cls-2" transform="translate(-2195.544 -2050.516)"/>
            <path id="Path_3520" d="M2263.86 2411.448a1.168 1.168 0 0 0 1.168 1.168h12.141v-17.8h-13.309z" class="cls-2" transform="translate(-2261.838 -2368.555)"/>
            <path id="Path_3521" d="M2775.01 2412.616h12.141a1.168 1.168 0 0 0 1.168-1.168v-16.633h-13.309z" class="cls-2" transform="translate(-2757.854 -2368.555)"/>
            <path id="Path_3522" d="M2307.891 1513.634a5.776 5.776 0 0 0-9.86-4.084c-1.3 1.305-2.98 5.609-4.059 8.675-1.079-3.066-2.754-7.37-4.059-8.675a5.776 5.776 0 0 0-8.168 8.168c1.887 1.887 10.045 4.548 11.661 5.062a1.248 1.248 0 0 0 .378.059 1.124 1.124 0 0 1 .375 0 1.248 1.248 0 0 0 .378-.059c1.616-.514 9.774-3.175 11.661-5.062a5.738 5.738 0 0 0 1.693-4.084zm-24.38 2.318a3.278 3.278 0 1 1 4.636-4.636c.865.865 2.45 4.818 3.662 8.3-3.48-1.216-7.433-2.799-8.298-3.664zm20.922 0c-.865.865-4.818 2.45-8.3 3.662 1.211-3.479 2.8-7.432 3.662-8.3a3.278 3.278 0 1 1 4.636 4.636z" class="cls-2" transform="translate(-2277.554 -1507.858)"/>
        </g>
    </g>
</svg>
