<svg xmlns="http://www.w3.org/2000/svg" id="instagram" width="90" height="90" viewBox="0 0 90 90">
    <defs>
        <style>
            .cls-1{fill:#022d56}
        </style>
    </defs>
    <path id="Path_1" d="M224.222 215.611a8.611 8.611 0 1 1-8.611-8.611 8.611 8.611 0 0 1 8.611 8.611zm0 0" class="cls-1" transform="translate(-170.611 -170.611)"/>
    <path id="Path_2" d="M176.8 141.431a8.555 8.555 0 0 0-4.9-4.9 14.293 14.293 0 0 0-4.8-.889c-2.725-.124-3.541-.151-10.439-.151s-7.715.026-10.439.15a14.3 14.3 0 0 0-4.8.89 8.558 8.558 0 0 0-4.9 4.9 14.3 14.3 0 0 0-.889 4.8c-.124 2.724-.151 3.541-.151 10.439s.027 7.715.151 10.439a14.293 14.293 0 0 0 .889 4.8 8.555 8.555 0 0 0 4.9 4.9 14.275 14.275 0 0 0 4.8.89c2.724.124 3.54.15 10.438.15s7.716-.026 10.439-.15a14.275 14.275 0 0 0 4.8-.89 8.555 8.555 0 0 0 4.9-4.9 14.306 14.306 0 0 0 .89-4.8c.124-2.725.15-3.541.15-10.439s-.026-7.715-.15-10.439a14.276 14.276 0 0 0-.889-4.8zm-20.138 28.5a13.265 13.265 0 1 1 13.265-13.265 13.265 13.265 0 0 1-13.264 13.266zm13.79-23.955a3.1 3.1 0 1 1 3.1-3.1 3.1 3.1 0 0 1-3.099 3.101zm0 0" class="cls-1" transform="translate(-111.663 -111.666)"/>
    <path id="Path_3" d="M45 0a45 45 0 1 0 45 45A45 45 0 0 0 45 0zm25.684 55.653a18.958 18.958 0 0 1-1.2 6.272 13.213 13.213 0 0 1-7.557 7.557 18.971 18.971 0 0 1-6.272 1.2c-2.756.126-3.636.156-10.653.156s-7.9-.03-10.654-.156a18.971 18.971 0 0 1-6.272-1.2 13.213 13.213 0 0 1-7.557-7.557 18.953 18.953 0 0 1-1.2-6.272C19.19 52.9 19.16 52.018 19.16 45s.03-7.9.156-10.653a18.96 18.96 0 0 1 1.2-6.273 13.221 13.221 0 0 1 7.558-7.557 18.976 18.976 0 0 1 6.273-1.2C37.1 19.19 37.982 19.16 45 19.16s7.9.03 10.653.157a18.98 18.98 0 0 1 6.273 1.2 13.216 13.216 0 0 1 7.557 7.558 18.956 18.956 0 0 1 1.2 6.273c.126 2.756.155 3.636.155 10.653s-.028 7.899-.154 10.652zm0 0" class="cls-1"/>
</svg>
