<svg xmlns="http://www.w3.org/2000/svg" width="83" height="83" viewBox="0 0 83 83">
    <g transform="translate(0 0.006)">
        <circle cx="41.5" cy="41.5" r="41.5" fill="#fff" transform="translate(0 -0.006)"/>
        <g>
            <path fill="#022c57" d="M36.839 11.545H31.18V4H4.773A3.784 3.784 0 0 0 1 7.773v20.748h3.773a5.659 5.659 0 0 0 11.318 0h11.317a5.659 5.659 0 0 0 11.318 0H42.5V19.09zM10.431 31.351a2.829 2.829 0 1 1 2.829-2.829 2.826 2.826 0 0 1-2.829 2.829zM35.9 14.374l3.7 4.716h-8.42v-4.716zm-2.833 16.977a2.829 2.829 0 1 1 2.833-2.83 2.826 2.826 0 0 1-2.833 2.83z" transform="translate(21.153 26.58) translate(-1 -4)"/>
        </g>
    </g>
</svg>
