<svg id="Layer_1" data-name="Layer 1" xmlns="http://www.w3.org/2000/svg" viewBox="0 0 64 64"><defs><style>.cls-1{fill:#f0f0f0;}.cls-2{fill:none;stroke:#002c57;stroke-linecap:round;stroke-linejoin:round;stroke-width:2px;}</style></defs><circle class="cls-1" cx="32" cy="32" r="30"/><path id="Path_3253" data-name="Path 3253" class="cls-2" d="M50.55,38.65a1.4,1.4,0,0,0-.06-.41,6.87,6.87,0,0,0-1.06-2.09A11.11,11.11,0,0,0,48,30.93a3.87,3.87,0,0,1-.42-.95,7.72,7.72,0,0,1,.72-2.14l.13-.27a.9.9,0,0,0-.6-1.24l-.16,0a1.22,1.22,0,0,0-.7.12,6,6,0,0,0-2,2.71L42,30.21l-4.66-2.93,1.4-2.05a1,1,0,0,0,.18-.83.9.9,0,0,0-.46-.48h0a3.22,3.22,0,0,0-2.12.14,10.41,10.41,0,0,0-3.67,2.39A13.58,13.58,0,0,1,29.89,29a23.27,23.27,0,0,1-3.79,1.57,26.39,26.39,0,0,1-4.25,1.48c-1.63.3-3.58.57-3.63.58a12.56,12.56,0,0,1-2.12.28,2.79,2.79,0,0,0-2.14.66,1.21,1.21,0,0,0-.2.3l0,0a1,1,0,0,0-.29.8s3,5.51,11.33,5.51H47.5S50.55,40.17,50.55,38.65Z"/></svg>